<svg width="32" height="32" viewBox="0 0 32 32" fill="none" xmlns="http://www.w3.org/2000/svg">
<g clip-path="url(#clip0_0_3)">
<circle cx="16" cy="16" r="16" fill="#D9D9D9"/>
<path d="M28 12C28 8.7 25.3 6 22 6C21.5 6 21.1 6.1 20.6 6.2C19.5 4.8 17.9 4 16 4C14.1 4 12.5 4.8 11.4 6.2C10.9 6.1 10.5 6 10 6C6.7 6 4 8.7 4 12C4 14.6 5.7 16.8 8 17.7V27C8 27.6 8.4 28 9 28H23C23.6 28 24 27.6 24 27V17.7C26.3 16.8 28 14.6 28 12ZM22 26H10V24H22V26ZM22 16V23H10V16C7.8 16 6 14.2 6 12C6 9.8 7.8 8 10 8C10.1 8 10.2 8 10.3 8C11 8.1 11.7 8.3 12.2 8.7C12.5 8 12.8 7.5 13.4 7C14.1 6.4 15 6 16 6C17 6 17.9 6.4 18.6 7C19.1 7.4 19.5 8 19.7 8.7C20.3 8.3 21 8.1 21.7 8C21.8 8 21.9 8 22 8C24.2 8 26 9.8 26 12C26 14.2 24.2 16 22 16Z" fill="black"/>
</g>
<defs>
<clipPath id="clip0_0_3">
<rect width="32" height="32" fill="white"/>
</clipPath>
</defs>
</svg>
